%TF.GenerationSoftware,KiCad,Pcbnew,8.0.4*%
%TF.CreationDate,2024-08-07T13:37:20+08:00*%
%TF.ProjectId,flashlight schematic,666c6173-686c-4696-9768-742073636865,rev?*%
%TF.SameCoordinates,Original*%
%TF.FileFunction,Legend,Top*%
%TF.FilePolarity,Positive*%
%FSLAX46Y46*%
G04 Gerber Fmt 4.6, Leading zero omitted, Abs format (unit mm)*
G04 Created by KiCad (PCBNEW 8.0.4) date 2024-08-07 13:37:20*
%MOMM*%
%LPD*%
G01*
G04 APERTURE LIST*
%ADD10C,0.150000*%
%ADD11C,0.100000*%
%ADD12C,0.000000*%
%ADD13C,0.120000*%
%ADD14C,1.600000*%
G04 APERTURE END LIST*
D10*
X27757142Y-29287200D02*
X30042857Y-29287200D01*
X28899999Y-30430057D02*
X28899999Y-28144342D01*
D11*
%TO.C,SW1*%
X145850000Y-105850000D02*
X154350000Y-105850000D01*
X145850000Y-109350000D02*
X145850000Y-105850000D01*
X154350000Y-105850000D02*
X154350000Y-109350000D01*
X154350000Y-109350000D02*
X145850000Y-109350000D01*
D12*
%TO.C,G\u002A\u002A\u002A*%
G36*
X125301658Y-114545304D02*
G01*
X125231492Y-114615470D01*
X125161326Y-114545304D01*
X125231492Y-114475139D01*
X125301658Y-114545304D01*
G37*
G36*
X140176796Y-122544199D02*
G01*
X140106630Y-122614365D01*
X140036465Y-122544199D01*
X140106630Y-122474034D01*
X140176796Y-122544199D01*
G37*
G36*
X167743483Y-120016569D02*
G01*
X167920001Y-120226977D01*
X167878403Y-120526708D01*
X167741910Y-120709866D01*
X167497900Y-120900950D01*
X167280547Y-120884296D01*
X167143247Y-120807120D01*
X166990477Y-120575532D01*
X167022467Y-120282361D01*
X167205911Y-120042706D01*
X167385235Y-119970872D01*
X167743483Y-120016569D01*
G37*
G36*
X171158903Y-116682431D02*
G01*
X171245208Y-116802086D01*
X171318187Y-117029826D01*
X171265570Y-117178211D01*
X171109866Y-117341910D01*
X170838933Y-117538759D01*
X170598510Y-117488558D01*
X170428534Y-117342189D01*
X170285047Y-117087949D01*
X170353282Y-116851028D01*
X170581701Y-116645923D01*
X170890587Y-116587510D01*
X171158903Y-116682431D01*
G37*
G36*
X139835648Y-104056112D02*
G01*
X140586648Y-104379085D01*
X140995120Y-104693715D01*
X141476036Y-105319425D01*
X141729769Y-106044229D01*
X141761375Y-106809626D01*
X141575912Y-107557118D01*
X141178440Y-108228205D01*
X140647361Y-108715952D01*
X140089506Y-108969230D01*
X139403059Y-109100404D01*
X138709345Y-109097925D01*
X138139380Y-108954693D01*
X137783036Y-108727500D01*
X137394118Y-108386744D01*
X137268214Y-108252658D01*
X136809610Y-107542797D01*
X136604253Y-106786291D01*
X136640869Y-106030309D01*
X136908182Y-105322017D01*
X137394920Y-104708584D01*
X138089808Y-104237177D01*
X138244646Y-104167472D01*
X139034919Y-103981736D01*
X139835648Y-104056112D01*
G37*
G36*
X161562385Y-104051129D02*
G01*
X162291975Y-104352494D01*
X162911790Y-104865422D01*
X163294707Y-105420473D01*
X163455257Y-105943292D01*
X163503749Y-106590105D01*
X163440229Y-107228026D01*
X163293902Y-107672346D01*
X162913617Y-108213686D01*
X162409508Y-108686536D01*
X161886995Y-108992131D01*
X161883959Y-108993283D01*
X161285855Y-109118151D01*
X160607891Y-109111815D01*
X160000377Y-108978753D01*
X159893371Y-108933983D01*
X159167192Y-108456248D01*
X158669069Y-107819798D01*
X158410055Y-107042022D01*
X158373635Y-106542768D01*
X158503767Y-105694090D01*
X158873250Y-104990529D01*
X159476222Y-104440670D01*
X159996027Y-104167472D01*
X160778558Y-103982424D01*
X161562385Y-104051129D01*
G37*
G36*
X150681771Y-106208527D02*
G01*
X151304221Y-106281276D01*
X151578730Y-106343291D01*
X151922629Y-106464366D01*
X152071149Y-106634212D01*
X152104822Y-106953027D01*
X152104973Y-106998055D01*
X152066314Y-107331874D01*
X151917103Y-107630177D01*
X151607487Y-107980885D01*
X151473481Y-108111750D01*
X151126112Y-108459668D01*
X150937244Y-108729697D01*
X150858649Y-109033778D01*
X150842101Y-109483851D01*
X150841989Y-109577518D01*
X150841989Y-110438210D01*
X152068724Y-111595273D01*
X152585595Y-112087315D01*
X152926479Y-112432420D01*
X153121574Y-112674068D01*
X153201076Y-112855743D01*
X153195183Y-113020925D01*
X153153759Y-113157660D01*
X152983698Y-113458338D01*
X152688423Y-113588491D01*
X152539268Y-113608394D01*
X152210825Y-113597573D01*
X151909105Y-113463212D01*
X151538053Y-113160174D01*
X151489315Y-113115009D01*
X151071650Y-112728263D01*
X150659468Y-112351503D01*
X150488829Y-112197651D01*
X150065504Y-111819087D01*
X149043880Y-112726118D01*
X148437960Y-113228713D01*
X147970541Y-113524813D01*
X147605286Y-113627475D01*
X147305856Y-113549756D01*
X147133229Y-113412629D01*
X146967580Y-113185036D01*
X146944675Y-112939990D01*
X147083331Y-112641846D01*
X147402365Y-112254962D01*
X147920593Y-111743692D01*
X148104420Y-111572964D01*
X149296133Y-110475691D01*
X149297238Y-109586102D01*
X149287512Y-109090052D01*
X149226618Y-108764404D01*
X149069287Y-108498960D01*
X148770247Y-108183522D01*
X148688173Y-108103496D01*
X148254469Y-107597964D01*
X148012492Y-107128147D01*
X147982620Y-106739975D01*
X148031337Y-106623083D01*
X148274387Y-106454182D01*
X148728594Y-106322941D01*
X149326319Y-106234695D01*
X149999924Y-106194779D01*
X150681771Y-106208527D01*
G37*
G36*
X154238510Y-66224441D02*
G01*
X157132981Y-66713633D01*
X159036358Y-67184816D01*
X161957810Y-68149061D01*
X164752743Y-69357810D01*
X167408345Y-70800497D01*
X169911804Y-72466558D01*
X172250305Y-74345428D01*
X174411036Y-76426544D01*
X176381184Y-78699340D01*
X178147937Y-81153253D01*
X179698480Y-83777717D01*
X180095484Y-84548384D01*
X181331773Y-87330112D01*
X182312323Y-90199041D01*
X183032763Y-93131997D01*
X183488724Y-96105803D01*
X183675837Y-99097285D01*
X183589732Y-102083268D01*
X183530692Y-102768169D01*
X183100063Y-105787065D01*
X182409111Y-108721404D01*
X181468735Y-111557533D01*
X180289830Y-114281803D01*
X178883295Y-116880563D01*
X177260026Y-119340160D01*
X175430921Y-121646946D01*
X173406878Y-123787268D01*
X171198792Y-125747476D01*
X168817562Y-127513919D01*
X166274085Y-129072946D01*
X163579259Y-130410906D01*
X160743979Y-131514148D01*
X160524862Y-131587416D01*
X159135592Y-132000235D01*
X157574057Y-132385792D01*
X155948618Y-132721353D01*
X154367639Y-132984188D01*
X153168169Y-133130692D01*
X152348148Y-133189879D01*
X151354353Y-133230299D01*
X150276577Y-133251111D01*
X149204611Y-133251474D01*
X148228245Y-133230546D01*
X147437270Y-133187486D01*
X147403868Y-133184708D01*
X144293571Y-132785247D01*
X141285310Y-132124441D01*
X138381909Y-131203490D01*
X137339805Y-130763683D01*
X144948067Y-130763683D01*
X145014744Y-130913336D01*
X145250578Y-131017684D01*
X145709267Y-131099468D01*
X145754973Y-131105432D01*
X148741542Y-131350834D01*
X151757220Y-131329276D01*
X153894199Y-131150542D01*
X154518853Y-131069305D01*
X154911219Y-130992061D01*
X155119081Y-130904526D01*
X155190218Y-130792418D01*
X155192266Y-130762525D01*
X155165784Y-130557890D01*
X155092625Y-130134856D01*
X154982222Y-129540351D01*
X154844005Y-128821300D01*
X154687405Y-128024631D01*
X154521855Y-127197270D01*
X154356786Y-126386142D01*
X154201628Y-125638175D01*
X154065814Y-125000294D01*
X153958776Y-124519427D01*
X153889943Y-124242500D01*
X153872199Y-124194483D01*
X153718602Y-124184497D01*
X153338766Y-124198121D01*
X152785864Y-124232464D01*
X152113067Y-124284634D01*
X151936748Y-124299740D01*
X150749696Y-124378610D01*
X149669117Y-124389262D01*
X148529295Y-124331912D01*
X148188319Y-124304665D01*
X147495834Y-124249986D01*
X146910891Y-124211573D01*
X146486586Y-124192328D01*
X146276012Y-124195154D01*
X146263208Y-124199408D01*
X146219265Y-124348662D01*
X146132148Y-124726701D01*
X146011256Y-125286617D01*
X145865988Y-125981500D01*
X145705742Y-126764439D01*
X145539916Y-127588526D01*
X145377908Y-128406850D01*
X145229117Y-129172502D01*
X145102940Y-129838573D01*
X145008777Y-130358152D01*
X144956025Y-130684331D01*
X144948067Y-130763683D01*
X137339805Y-130763683D01*
X135586194Y-130023593D01*
X132900990Y-128585949D01*
X130329122Y-126891758D01*
X129783562Y-126458648D01*
X133413856Y-126458648D01*
X133482287Y-126606464D01*
X133776967Y-126839231D01*
X134262694Y-127139839D01*
X134904270Y-127491177D01*
X135666494Y-127876133D01*
X136514166Y-128277598D01*
X137412086Y-128678459D01*
X138325054Y-129061607D01*
X139217871Y-129409930D01*
X140055336Y-129706318D01*
X140176796Y-129746143D01*
X140797689Y-129947295D01*
X141362449Y-130130255D01*
X141788074Y-130268134D01*
X141930940Y-130314412D01*
X142234139Y-130412997D01*
X142469306Y-130466943D01*
X142652723Y-130446477D01*
X142800671Y-130321829D01*
X142929433Y-130063226D01*
X143055290Y-129640898D01*
X143194523Y-129025071D01*
X143363415Y-128185976D01*
X143513882Y-127419953D01*
X143691114Y-126511782D01*
X143850460Y-125680544D01*
X143983518Y-124971266D01*
X144081888Y-124428972D01*
X144137167Y-124098688D01*
X144145374Y-124035574D01*
X144143776Y-124004449D01*
X155929615Y-124004449D01*
X155972372Y-124202325D01*
X156060671Y-124633101D01*
X156185962Y-125254279D01*
X156339695Y-126023357D01*
X156513319Y-126897836D01*
X156602794Y-127350553D01*
X156824595Y-128446811D01*
X157007278Y-129285406D01*
X157155899Y-129885836D01*
X157275516Y-130267603D01*
X157371186Y-130450206D01*
X157412580Y-130472929D01*
X157621572Y-130435366D01*
X158033876Y-130333881D01*
X158584002Y-130185281D01*
X159038786Y-130055603D01*
X159822326Y-129812169D01*
X160680990Y-129521513D01*
X161469713Y-129233443D01*
X161726025Y-129132957D01*
X162331454Y-128875632D01*
X163027519Y-128558128D01*
X163769054Y-128203576D01*
X164510893Y-127835102D01*
X165207872Y-127475834D01*
X165814824Y-127148900D01*
X166286584Y-126877429D01*
X166577986Y-126684548D01*
X166649468Y-126611812D01*
X166590744Y-126460949D01*
X166399619Y-126119024D01*
X166102105Y-125625799D01*
X165724216Y-125021034D01*
X165291964Y-124344492D01*
X164831361Y-123635934D01*
X164368419Y-122935120D01*
X163929152Y-122281813D01*
X163539572Y-121715774D01*
X163225692Y-121276763D01*
X163013523Y-121004543D01*
X162934670Y-120933569D01*
X162780727Y-120994002D01*
X162425379Y-121157283D01*
X161917935Y-121400101D01*
X161307703Y-121699148D01*
X161158489Y-121773186D01*
X160311308Y-122167141D01*
X159329598Y-122581320D01*
X158349107Y-122960316D01*
X157674631Y-123195171D01*
X156920677Y-123447671D01*
X156403627Y-123641329D01*
X156089785Y-123791771D01*
X155945453Y-123914625D01*
X155929615Y-124004449D01*
X144143776Y-124004449D01*
X144136615Y-123864922D01*
X144038156Y-123735673D01*
X143797811Y-123616982D01*
X143363394Y-123478007D01*
X143053592Y-123390297D01*
X141087468Y-122731354D01*
X139085020Y-121844849D01*
X138420425Y-121503004D01*
X137155214Y-120828858D01*
X135333132Y-123557940D01*
X134811640Y-124340098D01*
X134340007Y-125049521D01*
X133941421Y-125651165D01*
X133639067Y-126109988D01*
X133456132Y-126390947D01*
X133413856Y-126458648D01*
X129783562Y-126458648D01*
X127873415Y-124942217D01*
X127767943Y-124850474D01*
X125587732Y-122762489D01*
X123616045Y-120493083D01*
X121900845Y-118112643D01*
X124351144Y-118112643D01*
X124411919Y-118291149D01*
X124638452Y-118638417D01*
X125002791Y-119120108D01*
X125476987Y-119701887D01*
X126033089Y-120349417D01*
X126643147Y-121028359D01*
X127251254Y-121675370D01*
X127753086Y-122177915D01*
X128337954Y-122733526D01*
X128968473Y-123310021D01*
X129607256Y-123875215D01*
X130216921Y-124396925D01*
X130760080Y-124842967D01*
X131199350Y-125181158D01*
X131497344Y-125379313D01*
X131598471Y-125417752D01*
X131697618Y-125304905D01*
X131928220Y-124989928D01*
X132267705Y-124505313D01*
X132693499Y-123883551D01*
X133183030Y-123157132D01*
X133511050Y-122664821D01*
X134028865Y-121879921D01*
X134493041Y-121167876D01*
X134881318Y-120563527D01*
X135171434Y-120101717D01*
X135341126Y-119817287D01*
X135375917Y-119746105D01*
X135292995Y-119583188D01*
X135036678Y-119309505D01*
X134659760Y-118980462D01*
X134604094Y-118936067D01*
X133852048Y-118298334D01*
X133010259Y-117511857D01*
X132155838Y-116653576D01*
X131365893Y-115800429D01*
X130828886Y-115169237D01*
X130052952Y-114208878D01*
X127221227Y-116110293D01*
X126433055Y-116642496D01*
X125726130Y-117125518D01*
X125132796Y-117536795D01*
X124685398Y-117853760D01*
X124416279Y-118053850D01*
X124351144Y-118112643D01*
X121900845Y-118112643D01*
X121860955Y-118057281D01*
X120330533Y-115470107D01*
X119032851Y-112746585D01*
X117975981Y-109901738D01*
X117206525Y-107091327D01*
X119329654Y-107091327D01*
X119390838Y-107495391D01*
X119522266Y-108065247D01*
X119710551Y-108752108D01*
X119942309Y-109507191D01*
X120204154Y-110281709D01*
X120482699Y-111026877D01*
X120486712Y-111037017D01*
X120804090Y-111801541D01*
X121166407Y-112614184D01*
X121552983Y-113434817D01*
X121943140Y-114223314D01*
X122316198Y-114939547D01*
X122651476Y-115543390D01*
X122928296Y-115994714D01*
X123125978Y-116253394D01*
X123198709Y-116299448D01*
X123343421Y-116224881D01*
X123687514Y-116015522D01*
X124197259Y-115692884D01*
X124838928Y-115278479D01*
X125578790Y-114793821D01*
X126097253Y-114450730D01*
X126879449Y-113930929D01*
X127580868Y-113464485D01*
X128168652Y-113073275D01*
X128609940Y-112779177D01*
X128871874Y-112604069D01*
X128930503Y-112564334D01*
X128890837Y-112438936D01*
X128729337Y-112175170D01*
X128674752Y-112096719D01*
X128380561Y-111614479D01*
X128027410Y-110927060D01*
X127642521Y-110096389D01*
X127253115Y-109184390D01*
X126886413Y-108252990D01*
X126569637Y-107364114D01*
X126497730Y-107144233D01*
X126272565Y-106454034D01*
X126105780Y-105991304D01*
X125975672Y-105714518D01*
X125860539Y-105582149D01*
X125738678Y-105552672D01*
X125671279Y-105562908D01*
X125448121Y-105608797D01*
X124994931Y-105699381D01*
X124357160Y-105825668D01*
X123580258Y-105978670D01*
X122709675Y-106149395D01*
X122424862Y-106205102D01*
X121547250Y-106380968D01*
X120761879Y-106546564D01*
X120110996Y-106692311D01*
X119636848Y-106808629D01*
X119381682Y-106885939D01*
X119352100Y-106901840D01*
X119329654Y-107091327D01*
X117206525Y-107091327D01*
X117167994Y-106950592D01*
X116652288Y-104160774D01*
X116549060Y-103226344D01*
X116473269Y-102097805D01*
X116425482Y-100846695D01*
X116408122Y-99670166D01*
X118385830Y-99670166D01*
X118401106Y-100927315D01*
X118445990Y-102051499D01*
X118517535Y-103017221D01*
X118612796Y-103798982D01*
X118728824Y-104371287D01*
X118862674Y-104708639D01*
X118977807Y-104792266D01*
X119179295Y-104765467D01*
X119613232Y-104690371D01*
X120237101Y-104574928D01*
X121008384Y-104427090D01*
X121884560Y-104254805D01*
X122351101Y-104161497D01*
X123251490Y-103978409D01*
X124056086Y-103810982D01*
X124725290Y-103667772D01*
X125219505Y-103557330D01*
X125499132Y-103488212D01*
X125546863Y-103471186D01*
X125557330Y-103317006D01*
X125543648Y-102937599D01*
X125508765Y-102387091D01*
X125455630Y-101719607D01*
X125444599Y-101593959D01*
X125366419Y-100407596D01*
X125358024Y-99287646D01*
X125396421Y-98527545D01*
X127380544Y-98527545D01*
X127386212Y-100957531D01*
X127651961Y-103377956D01*
X128179132Y-105767127D01*
X128969067Y-108103353D01*
X129788436Y-109914365D01*
X131045917Y-112097244D01*
X132504000Y-114094297D01*
X134145747Y-115897041D01*
X135954223Y-117496990D01*
X137912492Y-118885658D01*
X140003618Y-120054561D01*
X142210665Y-120995213D01*
X144516696Y-121699129D01*
X146904776Y-122157825D01*
X149357969Y-122362814D01*
X151859338Y-122305612D01*
X154002479Y-122045882D01*
X156369992Y-121511199D01*
X158656601Y-120717676D01*
X160832983Y-119684833D01*
X164612031Y-119684833D01*
X166532811Y-122548900D01*
X167067055Y-123339817D01*
X167552300Y-124047363D01*
X167966204Y-124639837D01*
X168286423Y-125085536D01*
X168490617Y-125352760D01*
X168554145Y-125416981D01*
X168695666Y-125335240D01*
X169009314Y-125109194D01*
X169450149Y-124772454D01*
X169973232Y-124358633D01*
X170027625Y-124314877D01*
X170694084Y-123751981D01*
X171449268Y-123073193D01*
X172193162Y-122370345D01*
X172740539Y-121823993D01*
X173275837Y-121256411D01*
X173832170Y-120641773D01*
X174377086Y-120018829D01*
X174878131Y-119426332D01*
X175302852Y-118903033D01*
X175618794Y-118487682D01*
X175793504Y-118219031D01*
X175817752Y-118149647D01*
X175705491Y-118049141D01*
X175396790Y-117822360D01*
X174930866Y-117495465D01*
X174346934Y-117094620D01*
X173684213Y-116645985D01*
X172981920Y-116175722D01*
X172279271Y-115709993D01*
X171615484Y-115274961D01*
X171029777Y-114896786D01*
X170561365Y-114601631D01*
X170249466Y-114415658D01*
X170142606Y-114363741D01*
X169976805Y-114446800D01*
X169709219Y-114704193D01*
X169403540Y-115072882D01*
X168869348Y-115721723D01*
X168177365Y-116476060D01*
X167392567Y-117270662D01*
X166579929Y-118040301D01*
X165804428Y-118719747D01*
X165620657Y-118870547D01*
X164612031Y-119684833D01*
X160832983Y-119684833D01*
X160842153Y-119680481D01*
X162906493Y-118414782D01*
X164829468Y-116935748D01*
X166590924Y-115258548D01*
X168170707Y-113398350D01*
X168779083Y-112502964D01*
X171279331Y-112502964D01*
X171322629Y-112638879D01*
X171357160Y-112663022D01*
X171525388Y-112770489D01*
X171889489Y-113011549D01*
X172413265Y-113361951D01*
X173060518Y-113797442D01*
X173795050Y-114293770D01*
X174141246Y-114528351D01*
X174901455Y-115036860D01*
X175591520Y-115485103D01*
X176175429Y-115850769D01*
X176617175Y-116111545D01*
X176880747Y-116245119D01*
X176932240Y-116257706D01*
X177079072Y-116129062D01*
X177316481Y-115804727D01*
X177607285Y-115338905D01*
X177818022Y-114966299D01*
X178186982Y-114264869D01*
X178572973Y-113494122D01*
X178909710Y-112787465D01*
X179003355Y-112580663D01*
X179289759Y-111901460D01*
X179589498Y-111131266D01*
X179888368Y-110313774D01*
X180172162Y-109492677D01*
X180426676Y-108711668D01*
X180637704Y-108014439D01*
X180791039Y-107444683D01*
X180872478Y-107046094D01*
X180867814Y-106862363D01*
X180863735Y-106858561D01*
X180714373Y-106820510D01*
X180328912Y-106737704D01*
X179746902Y-106618200D01*
X179007894Y-106470057D01*
X178151437Y-106301333D01*
X177645304Y-106202808D01*
X176734402Y-106025160D01*
X175912895Y-105862912D01*
X175221882Y-105724347D01*
X174702465Y-105617749D01*
X174395742Y-105551400D01*
X174333415Y-105535366D01*
X174227030Y-105637523D01*
X174065891Y-105967352D01*
X173868996Y-106481728D01*
X173721066Y-106925359D01*
X173356392Y-107988157D01*
X172930391Y-109086315D01*
X172476085Y-110143001D01*
X172026501Y-111081386D01*
X171616331Y-111821929D01*
X171371799Y-112248278D01*
X171279331Y-112502964D01*
X168779083Y-112502964D01*
X169548663Y-111370324D01*
X170493907Y-109633702D01*
X171455439Y-107351726D01*
X172155388Y-104998588D01*
X172595360Y-102597619D01*
X172776964Y-100172150D01*
X172701807Y-97745509D01*
X172463835Y-96013208D01*
X174592694Y-96013208D01*
X174606070Y-96392344D01*
X174639564Y-96944562D01*
X174690351Y-97616667D01*
X174704665Y-97788319D01*
X174780419Y-98972777D01*
X174788232Y-100053045D01*
X174727885Y-101194843D01*
X174699740Y-101536748D01*
X174644984Y-102232781D01*
X174609779Y-102824005D01*
X174596489Y-103256545D01*
X174607478Y-103476526D01*
X174613977Y-103491694D01*
X174769474Y-103541837D01*
X175153437Y-103634535D01*
X175719287Y-103760402D01*
X176420448Y-103910050D01*
X177210341Y-104074095D01*
X178042390Y-104243151D01*
X178870015Y-104407831D01*
X179646640Y-104558750D01*
X180325687Y-104686522D01*
X180860578Y-104781760D01*
X181204735Y-104835079D01*
X181311348Y-104841288D01*
X181365412Y-104692353D01*
X181440236Y-104326699D01*
X181524182Y-103806394D01*
X181576574Y-103426665D01*
X181662588Y-102522044D01*
X181718796Y-101419907D01*
X181745152Y-100201820D01*
X181741610Y-98949348D01*
X181708123Y-97744058D01*
X181644645Y-96667513D01*
X181580791Y-96021547D01*
X181502223Y-95425199D01*
X181428467Y-94940818D01*
X181369624Y-94630985D01*
X181343665Y-94552304D01*
X181197092Y-94562054D01*
X180821659Y-94619635D01*
X180263371Y-94716118D01*
X179568233Y-94842579D01*
X178782250Y-94990089D01*
X177951426Y-95149724D01*
X177121768Y-95312556D01*
X176339278Y-95469659D01*
X175649963Y-95612107D01*
X175099827Y-95730973D01*
X174734875Y-95817331D01*
X174602263Y-95860353D01*
X174592694Y-96013208D01*
X172463835Y-96013208D01*
X172371496Y-95341029D01*
X171787640Y-92982039D01*
X170951845Y-90691869D01*
X169865720Y-88493850D01*
X168933403Y-86987050D01*
X168789520Y-86774103D01*
X171215008Y-86774103D01*
X171257191Y-86897480D01*
X171414282Y-87182111D01*
X171555766Y-87412985D01*
X172035595Y-88241021D01*
X172495576Y-89186813D01*
X172950473Y-90287020D01*
X173415054Y-91578296D01*
X173904084Y-93097299D01*
X174082660Y-93685880D01*
X174250304Y-93815351D01*
X174454070Y-93802417D01*
X174680724Y-93754020D01*
X175137665Y-93660177D01*
X175779871Y-93529999D01*
X176562319Y-93372598D01*
X177439987Y-93197084D01*
X177785636Y-93128225D01*
X178668440Y-92951067D01*
X179454998Y-92790412D01*
X180104836Y-92654757D01*
X180577479Y-92552602D01*
X180832453Y-92492444D01*
X180865022Y-92481657D01*
X180871303Y-92319889D01*
X180797554Y-91943405D01*
X180658307Y-91401743D01*
X180468091Y-90744442D01*
X180241437Y-90021038D01*
X179992877Y-89281070D01*
X179736941Y-88574075D01*
X179659987Y-88373481D01*
X179388826Y-87714034D01*
X179059891Y-86970895D01*
X178695116Y-86187607D01*
X178316435Y-85407715D01*
X177945782Y-84674760D01*
X177605091Y-84032286D01*
X177316295Y-83523836D01*
X177101330Y-83192952D01*
X176995913Y-83084814D01*
X176810688Y-83127719D01*
X176472350Y-83299883D01*
X176036908Y-83562788D01*
X175560371Y-83877915D01*
X175098748Y-84206744D01*
X174708047Y-84510756D01*
X174444278Y-84751432D01*
X174363448Y-84890254D01*
X174365300Y-84893973D01*
X174375431Y-84981846D01*
X174289993Y-84943174D01*
X174084326Y-84962362D01*
X173719602Y-85135294D01*
X173336005Y-85377569D01*
X172900954Y-85675758D01*
X172533956Y-85923885D01*
X172327640Y-86059714D01*
X171987897Y-86276266D01*
X171452636Y-86620677D01*
X171215008Y-86774103D01*
X168789520Y-86774103D01*
X168068367Y-85706798D01*
X168366228Y-85014401D01*
X168615665Y-84142809D01*
X168620596Y-83323113D01*
X168411405Y-82585250D01*
X168018476Y-81959157D01*
X167472194Y-81474770D01*
X166802944Y-81162027D01*
X166041109Y-81050865D01*
X165217074Y-81171220D01*
X164677809Y-81380296D01*
X164051978Y-81684349D01*
X162884829Y-80901051D01*
X160668977Y-79576614D01*
X159584403Y-79077558D01*
X165037405Y-79077558D01*
X166184172Y-79140791D01*
X167363120Y-79328831D01*
X168386065Y-79743757D01*
X169236266Y-80368781D01*
X169896985Y-81187113D01*
X170351479Y-82181964D01*
X170583008Y-83336546D01*
X170600251Y-83569681D01*
X170664193Y-84729970D01*
X171043246Y-84481836D01*
X171278776Y-84325976D01*
X171702816Y-84043727D01*
X172270689Y-83664892D01*
X172937720Y-83219275D01*
X173621647Y-82761832D01*
X174310432Y-82295941D01*
X174910947Y-81880327D01*
X175386990Y-81540822D01*
X175702361Y-81303262D01*
X175820858Y-81193481D01*
X175820995Y-81192296D01*
X175730973Y-81011346D01*
X175482805Y-80663981D01*
X175109339Y-80189438D01*
X174643422Y-79626957D01*
X174117902Y-79015775D01*
X173565625Y-78395130D01*
X173019440Y-77804261D01*
X172745754Y-77518739D01*
X172256032Y-77033389D01*
X171682829Y-76493736D01*
X171064305Y-75932514D01*
X170438620Y-75382459D01*
X169843935Y-74876304D01*
X169318408Y-74446786D01*
X168900201Y-74126638D01*
X168627473Y-73948595D01*
X168554145Y-73923062D01*
X168450709Y-74035991D01*
X168217108Y-74350102D01*
X167876922Y-74831771D01*
X167453731Y-75447373D01*
X166971113Y-76163284D01*
X166745498Y-76502172D01*
X165037405Y-79077558D01*
X159584403Y-79077558D01*
X158371171Y-78519301D01*
X156001573Y-77731120D01*
X153570342Y-77214077D01*
X151087641Y-76970180D01*
X148563628Y-77001437D01*
X146008465Y-77309855D01*
X145342622Y-77435215D01*
X143344723Y-77954896D01*
X141315814Y-78701040D01*
X139332887Y-79641058D01*
X137472933Y-80742363D01*
X137373992Y-80808131D01*
X136074266Y-81677504D01*
X135455478Y-81376874D01*
X134624847Y-81115693D01*
X133769536Y-81100654D01*
X132955417Y-81323844D01*
X132268217Y-81759741D01*
X131828830Y-82320549D01*
X131565486Y-83034002D01*
X131489207Y-83825722D01*
X131611015Y-84621329D01*
X131779124Y-85060110D01*
X132082004Y-85683529D01*
X131206436Y-86993422D01*
X129931833Y-89145831D01*
X128910601Y-91397140D01*
X128144080Y-93725657D01*
X127633614Y-96109689D01*
X127380544Y-98527545D01*
X125396421Y-98527545D01*
X125419101Y-98078578D01*
X125437015Y-97844896D01*
X125488160Y-97138994D01*
X125521804Y-96538261D01*
X125535738Y-96095523D01*
X125527754Y-95863606D01*
X125520718Y-95843001D01*
X125361320Y-95788960D01*
X124976073Y-95695171D01*
X124410820Y-95570557D01*
X123711407Y-95424043D01*
X122923675Y-95264552D01*
X122093470Y-95101009D01*
X121266636Y-94942338D01*
X120489015Y-94797462D01*
X119806452Y-94675305D01*
X119264791Y-94584792D01*
X118909876Y-94534847D01*
X118787724Y-94532351D01*
X118712275Y-94787925D01*
X118636330Y-95273678D01*
X118563836Y-95939161D01*
X118498738Y-96733927D01*
X118444982Y-97607525D01*
X118406516Y-98509507D01*
X118387284Y-99389426D01*
X118385830Y-99670166D01*
X116408122Y-99670166D01*
X116406269Y-99544550D01*
X116416197Y-98262906D01*
X116455834Y-97073300D01*
X116525748Y-96047268D01*
X116583763Y-95530387D01*
X117145861Y-92395378D01*
X117192553Y-92222291D01*
X119321821Y-92222291D01*
X119338016Y-92421181D01*
X119340144Y-92423535D01*
X119487551Y-92468066D01*
X119863383Y-92559109D01*
X120421144Y-92686684D01*
X121114340Y-92840812D01*
X121896475Y-93011513D01*
X122721055Y-93188809D01*
X123541584Y-93362719D01*
X124311569Y-93523264D01*
X124984515Y-93660464D01*
X125513926Y-93764340D01*
X125853307Y-93824913D01*
X125902471Y-93832050D01*
X126036033Y-93735868D01*
X126063385Y-93670995D01*
X126686705Y-91687253D01*
X127316264Y-89981381D01*
X127953169Y-88550632D01*
X128585396Y-87412985D01*
X128794867Y-87062398D01*
X128914153Y-86824880D01*
X128925324Y-86766793D01*
X128800309Y-86682090D01*
X128475279Y-86465137D01*
X127984274Y-86138565D01*
X127361338Y-85725004D01*
X126640513Y-85247085D01*
X126283978Y-85010897D01*
X125514453Y-84498964D01*
X124813896Y-84028587D01*
X124219824Y-83625303D01*
X123769752Y-83314652D01*
X123501197Y-83122170D01*
X123452124Y-83083212D01*
X123295957Y-82982063D01*
X123156002Y-83031283D01*
X122969917Y-83269260D01*
X122851392Y-83453111D01*
X122544904Y-83978400D01*
X122165338Y-84688189D01*
X121749114Y-85508557D01*
X121332650Y-86365581D01*
X120952364Y-87185338D01*
X120644675Y-87893905D01*
X120559977Y-88104249D01*
X120259275Y-88909939D01*
X119979077Y-89728910D01*
X119732308Y-90515396D01*
X119531892Y-91223632D01*
X119390755Y-91807852D01*
X119321821Y-92222291D01*
X117192553Y-92222291D01*
X117957603Y-89386252D01*
X119017466Y-86506114D01*
X120323928Y-83758068D01*
X121848468Y-81190686D01*
X124323066Y-81190686D01*
X124435947Y-81292905D01*
X124749834Y-81525367D01*
X125230999Y-81864457D01*
X125845714Y-82286561D01*
X126560252Y-82768067D01*
X126884116Y-82983729D01*
X129441437Y-84680718D01*
X129526035Y-83545055D01*
X129667501Y-82539119D01*
X129921748Y-81754828D01*
X129930152Y-81736965D01*
X130528227Y-80780771D01*
X131310165Y-80034521D01*
X132267701Y-79503564D01*
X133392572Y-79193247D01*
X133964333Y-79126035D01*
X135119273Y-79041437D01*
X133403007Y-76482855D01*
X132898805Y-75737327D01*
X132444429Y-75077109D01*
X132063609Y-74535732D01*
X131780074Y-74146730D01*
X131617551Y-73943633D01*
X131590686Y-73921805D01*
X131399723Y-74011664D01*
X131043354Y-74265399D01*
X130557979Y-74651833D01*
X129980004Y-75139794D01*
X129345830Y-75698106D01*
X128691862Y-76295595D01*
X128054502Y-76901087D01*
X127678075Y-77272427D01*
X127079170Y-77888495D01*
X126470391Y-78541249D01*
X125882587Y-79194660D01*
X125346611Y-79812697D01*
X124893311Y-80359330D01*
X124553540Y-80798530D01*
X124358147Y-81094266D01*
X124323066Y-81190686D01*
X121848468Y-81190686D01*
X121875467Y-81145219D01*
X123670558Y-78670670D01*
X125707679Y-76337528D01*
X126292399Y-75738828D01*
X128524067Y-73703015D01*
X129645497Y-72854120D01*
X133470514Y-72854120D01*
X133471866Y-72876299D01*
X133557752Y-73032984D01*
X133777507Y-73388266D01*
X134108894Y-73907503D01*
X134529672Y-74556051D01*
X135017605Y-75299267D01*
X135335360Y-75779255D01*
X137159669Y-78526538D01*
X138141989Y-77988253D01*
X138736312Y-77678280D01*
X139461217Y-77322853D01*
X140188206Y-76984444D01*
X140409013Y-76886121D01*
X141135311Y-76590281D01*
X141937653Y-76299120D01*
X142673577Y-76063466D01*
X142864814Y-76009935D01*
X143406679Y-75859024D01*
X143841575Y-75725983D01*
X144100100Y-75632512D01*
X144137506Y-75612012D01*
X144139802Y-75456856D01*
X144125723Y-75345142D01*
X155946545Y-75345142D01*
X155967612Y-75468726D01*
X156127775Y-75594412D01*
X156466795Y-75742114D01*
X157024432Y-75931747D01*
X157275219Y-76010657D01*
X158800120Y-76529983D01*
X160203017Y-77097836D01*
X161420383Y-77687394D01*
X161928177Y-77975030D01*
X162373341Y-78238755D01*
X162718799Y-78436066D01*
X162900280Y-78530412D01*
X162910498Y-78533629D01*
X163004323Y-78424651D01*
X163229841Y-78113269D01*
X163564779Y-77631745D01*
X163986869Y-77012341D01*
X164473839Y-76287317D01*
X164804973Y-75789253D01*
X165320911Y-75001928D01*
X165780266Y-74285034D01*
X166161289Y-73673830D01*
X166442230Y-73203570D01*
X166601340Y-72909512D01*
X166629282Y-72831981D01*
X166504561Y-72654017D01*
X166154623Y-72392493D01*
X165615802Y-72065642D01*
X164924436Y-71691693D01*
X164116860Y-71288880D01*
X163229409Y-70875433D01*
X162298421Y-70469583D01*
X161360230Y-70089563D01*
X160595028Y-69804308D01*
X159898535Y-69566809D01*
X159190402Y-69343238D01*
X158522458Y-69147859D01*
X157946535Y-68994933D01*
X157514463Y-68898723D01*
X157278073Y-68873490D01*
X157251098Y-68884156D01*
X157214987Y-69031346D01*
X157133715Y-69414226D01*
X157015389Y-69992924D01*
X156868116Y-70727566D01*
X156700000Y-71578280D01*
X156612580Y-72024862D01*
X156434935Y-72931146D01*
X156272297Y-73753325D01*
X156133287Y-74448418D01*
X156026528Y-74973445D01*
X155960640Y-75285428D01*
X155946545Y-75345142D01*
X144125723Y-75345142D01*
X144091544Y-75073951D01*
X144001811Y-74509802D01*
X143879685Y-73810912D01*
X143734245Y-73023788D01*
X143574574Y-72194933D01*
X143409752Y-71370852D01*
X143248859Y-70598050D01*
X143100977Y-69923031D01*
X142975186Y-69392301D01*
X142880568Y-69052364D01*
X142837040Y-68952062D01*
X142627084Y-68913361D01*
X142199815Y-68974245D01*
X141594966Y-69121605D01*
X140852268Y-69342333D01*
X140011453Y-69623321D01*
X139112253Y-69951459D01*
X138194401Y-70313640D01*
X137297628Y-70696755D01*
X136668509Y-70987199D01*
X135545929Y-71538968D01*
X134658440Y-72005326D01*
X134012441Y-72382492D01*
X133614333Y-72666684D01*
X133470514Y-72854120D01*
X129645497Y-72854120D01*
X130925891Y-71884893D01*
X133481198Y-70292707D01*
X136173314Y-68934704D01*
X137531737Y-68395840D01*
X144953130Y-68395840D01*
X144959014Y-68546722D01*
X145013703Y-68929702D01*
X145109933Y-69501873D01*
X145240442Y-70220328D01*
X145397967Y-71042158D01*
X145420065Y-71154422D01*
X145649417Y-72314006D01*
X145831555Y-73227372D01*
X145973118Y-73923748D01*
X146080745Y-74432363D01*
X146161075Y-74782447D01*
X146220747Y-75003227D01*
X146266401Y-75123934D01*
X146304674Y-75173796D01*
X146334959Y-75182321D01*
X146505057Y-75171667D01*
X146899820Y-75142499D01*
X147464168Y-75099006D01*
X148143022Y-75045380D01*
X148298160Y-75032968D01*
X149738561Y-74957659D01*
X151109954Y-74978889D01*
X151992115Y-75039072D01*
X152676780Y-75092999D01*
X153253449Y-75130483D01*
X153668409Y-75148622D01*
X153867944Y-75144514D01*
X153877124Y-75140925D01*
X153921028Y-74991720D01*
X154008119Y-74613733D01*
X154128997Y-74053877D01*
X154274261Y-73359062D01*
X154434511Y-72576200D01*
X154600347Y-71752202D01*
X154762368Y-70933979D01*
X154911175Y-70168442D01*
X155037367Y-69502503D01*
X155131543Y-68983073D01*
X155184304Y-68657063D01*
X155192266Y-68577807D01*
X155056466Y-68432820D01*
X154666682Y-68302902D01*
X154049338Y-68191145D01*
X153230857Y-68100643D01*
X152237663Y-68034487D01*
X151096178Y-67995769D01*
X150140332Y-67986597D01*
X149304662Y-67997887D01*
X148425623Y-68028887D01*
X147551506Y-68075789D01*
X146730603Y-68134782D01*
X146011204Y-68202056D01*
X145441602Y-68273801D01*
X145070086Y-68346208D01*
X144953130Y-68395840D01*
X137531737Y-68395840D01*
X138985568Y-67819129D01*
X141901285Y-66954230D01*
X144903795Y-66348251D01*
X145439227Y-66269116D01*
X148340695Y-65998752D01*
X151290769Y-65985004D01*
X154238510Y-66224441D01*
G37*
D13*
%TO.C,D2*%
X159435000Y-105364000D02*
X159435000Y-105520000D01*
X159435000Y-107680000D02*
X159435000Y-107836000D01*
X159435000Y-105364484D02*
G75*
G02*
X162667335Y-105521392I1560000J-1235516D01*
G01*
X159954039Y-105520000D02*
G75*
G02*
X162036130Y-105520163I1040961J-1080000D01*
G01*
X162036130Y-107679837D02*
G75*
G02*
X159954039Y-107680000I-1041130J1079837D01*
G01*
X162667335Y-107678608D02*
G75*
G02*
X159435000Y-107835516I-1672335J1078608D01*
G01*
%TO.C,D1*%
X137570000Y-105364000D02*
X137570000Y-105520000D01*
X137570000Y-107680000D02*
X137570000Y-107836000D01*
X137570000Y-105364484D02*
G75*
G02*
X140802335Y-105521392I1560000J-1235516D01*
G01*
X138089039Y-105520000D02*
G75*
G02*
X140171130Y-105520163I1040961J-1080000D01*
G01*
X140171130Y-107679837D02*
G75*
G02*
X138089039Y-107680000I-1041130J1079837D01*
G01*
X140802335Y-107678608D02*
G75*
G02*
X137570000Y-107835516I-1672335J1078608D01*
G01*
%TD*%
D14*
%TO.C,SW1*%
X147600000Y-107600000D03*
X150100000Y-107600000D03*
X152600000Y-107600000D03*
%TD*%
M02*
